<svg width="13" height="13" viewBox="0 0 13 13" fill="none" xmlns="http://www.w3.org/2000/svg">
<path fill-rule="evenodd" clip-rule="evenodd" d="M12.2115 1.68931C12.2801 1.62077 12.3346 1.53939 12.3718 1.44981C12.4089 1.36022 12.4281 1.26419 12.4281 1.1672C12.4282 1.07022 12.4092 0.974164 12.3721 0.884535C12.335 0.794905 12.2807 0.713453 12.2121 0.644829C12.1436 0.576205 12.0622 0.521753 11.9726 0.484582C11.8831 0.44741 11.787 0.428248 11.69 0.428188C11.5931 0.428129 11.497 0.447173 11.4074 0.484234C11.3177 0.521296 11.2363 0.575647 11.1677 0.644187L6.71367 5.09818L2.26097 0.644187C2.12238 0.505595 1.93441 0.427734 1.73841 0.427734C1.54241 0.427734 1.35443 0.505595 1.21584 0.644187C1.07725 0.78278 0.99939 0.970752 0.99939 1.16675C0.99939 1.36275 1.07725 1.55072 1.21584 1.68931L5.66983 6.14202L1.21584 10.5947C1.14722 10.6633 1.09278 10.7448 1.05564 10.8345C1.0185 10.9241 0.99939 11.0202 0.99939 11.1173C0.99939 11.2143 1.0185 11.3104 1.05564 11.4001C1.09278 11.4898 1.14722 11.5712 1.21584 11.6398C1.35443 11.7784 1.54241 11.8563 1.73841 11.8563C1.83546 11.8563 1.93155 11.8372 2.02122 11.8C2.11088 11.7629 2.19235 11.7085 2.26097 11.6398L6.71367 7.18586L11.1677 11.6398C11.3063 11.7783 11.4942 11.856 11.69 11.8559C11.8859 11.8557 12.0737 11.7778 12.2121 11.6392C12.3506 11.5006 12.4283 11.3127 12.4281 11.1168C12.428 10.921 12.3501 10.7331 12.2115 10.5947L7.75752 6.14202L12.2115 1.68931Z" fill="#112211" stroke="black" stroke-width="0.717858"/>
</svg>
