<svg width="109" height="21" viewBox="0 0 109 21" fill="none" xmlns="http://www.w3.org/2000/svg">
<path d="M17.5 7.42708C17.5 7.59375 17.4688 7.76562 17.4062 7.94271C17.3542 8.11979 17.2865 8.28125 17.2031 8.42708C17.0677 8.44792 16.9427 8.49479 16.8281 8.56771C16.724 8.64062 16.6406 8.6875 16.5781 8.70833C16.4427 8.72917 16.2812 8.73958 16.0938 8.73958C15.9167 8.72917 15.7552 8.72917 15.6094 8.73958C15.3281 8.76042 15.0469 8.79167 14.7656 8.83333C14.4948 8.875 14.224 8.92708 13.9531 8.98958C13.9323 8.98958 13.9115 8.99479 13.8906 9.00521C13.8698 9.00521 13.8594 9.01562 13.8594 9.03646C13.8594 9.05729 13.8646 9.07812 13.875 9.09896C13.8854 9.11979 13.8906 9.14062 13.8906 9.16146C13.8906 9.19271 13.8594 9.20833 13.7969 9.20833C13.6823 9.20833 13.6042 9.17188 13.5625 9.09896C13.2292 9.18229 12.8958 9.27083 12.5625 9.36458C12.2292 9.44792 11.8958 9.53125 11.5625 9.61458C11.3958 9.64583 11.2292 9.67708 11.0625 9.70833C10.9062 9.73958 10.7448 9.78125 10.5781 9.83333C10.4948 9.85417 10.4115 9.89062 10.3281 9.94271L10.0781 10.099C10.026 10.0885 9.97917 10.0833 9.9375 10.0833C9.89583 10.0729 9.85417 10.0677 9.8125 10.0677C9.63542 10.0677 9.44792 10.1042 9.25 10.1771C9.05208 10.2396 8.88021 10.3281 8.73438 10.4427H8.625C8.52083 10.4427 8.44792 10.4271 8.40625 10.3958C8.3125 10.3854 8.25521 10.4167 8.23438 10.4896C8.21354 10.5521 8.17708 10.6094 8.125 10.6615C7.77083 10.6927 7.42188 10.7552 7.07812 10.849C6.73438 10.9427 6.39583 11.0469 6.0625 11.1615C5.72917 11.2656 5.39062 11.375 5.04688 11.4896C4.71354 11.5938 4.375 11.6771 4.03125 11.7396C3.98958 11.9479 3.96875 12.1875 3.96875 12.4583C3.96875 12.6667 3.98438 12.9062 4.01562 13.1771C4.05729 13.4479 4.14062 13.6771 4.26562 13.8646V13.8958C4.26562 13.9479 4.24479 13.9844 4.20312 14.0052C4.16146 14.026 4.14062 14.0625 4.14062 14.1146C4.14062 14.3854 4.16667 14.6406 4.21875 14.8802C4.28125 15.1198 4.34375 15.3542 4.40625 15.5833C4.46875 15.8125 4.52604 16.0417 4.57812 16.2708C4.64062 16.5 4.67188 16.7344 4.67188 16.974C4.67188 17.0365 4.66667 17.0938 4.65625 17.1458C4.65625 17.2083 4.65104 17.2708 4.64062 17.3333C4.67188 17.4271 4.72396 17.5052 4.79688 17.5677C4.86979 17.6302 4.93229 17.7031 4.98438 17.7865C4.99479 17.8385 5 17.8854 5 17.9271V18.0833C5 18.2604 4.97917 18.4167 4.9375 18.5521C4.89583 18.6875 4.84375 18.8125 4.78125 18.9271C4.71875 19.0521 4.65104 19.1719 4.57812 19.2865C4.50521 19.4115 4.4375 19.5469 4.375 19.6927C4.27083 19.7135 4.1875 19.724 4.125 19.724C3.96875 19.724 3.83854 19.6823 3.73438 19.599C3.64062 19.5156 3.55729 19.4115 3.48438 19.2865C3.41146 19.1719 3.33854 19.0521 3.26562 18.9271C3.20312 18.8021 3.125 18.6979 3.03125 18.6146C3.04167 18.5625 3.04688 18.5156 3.04688 18.474C3.05729 18.4323 3.0625 18.3854 3.0625 18.3333C3.0625 18.125 3.02604 17.9219 2.95312 17.724C2.89062 17.526 2.81771 17.3385 2.73438 17.1615C2.72396 16.8073 2.6875 16.4583 2.625 16.1146C2.5625 15.7708 2.47396 15.4323 2.35938 15.099C2.38021 14.974 2.39583 14.8542 2.40625 14.7396C2.41667 14.6146 2.42188 14.4948 2.42188 14.3802C2.42188 14.0781 2.40625 13.776 2.375 13.474C2.34375 13.1719 2.33854 12.8698 2.35938 12.5677C2.32812 12.5156 2.29688 12.474 2.26562 12.4427C2.23438 12.401 2.20833 12.3542 2.1875 12.3021H2.125C1.96875 12.3021 1.81771 12.3177 1.67188 12.349C1.52604 12.3698 1.38021 12.3802 1.23438 12.3802C1.18229 12.3802 1.13542 12.3802 1.09375 12.3802C1.05208 12.3698 0.411458 12.401 0.359375 12.3906C0.244792 12.276 0.15625 12.1458 0.09375 12C0.03125 11.8542 0 11.7031 0 11.5469C0 11.3177 0.0625 11.1094 0.1875 10.9219C0.447917 10.8594 1.29688 10.7448 1.54688 10.6615C1.80729 10.5677 2.05729 10.4583 2.29688 10.3333C2.32812 10.1771 2.34375 10.0208 2.34375 9.86458C2.35417 9.70833 2.41146 9.5625 2.51562 9.42708C2.48438 9.34375 2.43229 9.27083 2.35938 9.20833C2.29688 9.13542 2.26562 9.05208 2.26562 8.95833C2.26562 8.90625 2.27604 8.83854 2.29688 8.75521C2.40104 8.64062 2.47396 8.49479 2.51562 8.31771C2.55729 8.14062 2.59375 7.95312 2.625 7.75521C2.65625 7.55729 2.6875 7.35938 2.71875 7.16146C2.76042 6.96354 2.82812 6.78646 2.92188 6.63021C2.90104 6.54688 2.88542 6.45833 2.875 6.36458C2.86458 6.26042 2.85938 6.16667 2.85938 6.08333C2.85938 5.95833 2.86458 5.83333 2.875 5.70833C2.89583 5.57292 2.92708 5.44792 2.96875 5.33333C2.85417 5.19792 2.76042 5.04167 2.6875 4.86458C2.61458 4.67708 2.57812 4.49479 2.57812 4.31771C2.57812 3.97396 2.74479 3.75521 3.07812 3.66146C3.06771 3.61979 3.05729 3.58333 3.04688 3.55208C3.04688 3.52083 3.04688 3.48958 3.04688 3.45833C3.04688 3.36458 3.07292 3.27604 3.125 3.19271C3.17708 3.10938 3.21875 3.02604 3.25 2.94271C3.19792 2.80729 3.17188 2.69271 3.17188 2.59896C3.17188 2.51562 3.1875 2.44271 3.21875 2.38021C3.25 2.30729 3.27604 2.22917 3.29688 2.14583C3.32812 2.04167 3.34896 1.94792 3.35938 1.86458C3.38021 1.78125 3.41146 1.70833 3.45312 1.64583C3.49479 1.58333 3.54688 1.53646 3.60938 1.50521C3.68229 1.47396 3.79167 1.45833 3.9375 1.45833C4.16667 1.45833 4.38542 1.53125 4.59375 1.67708C4.8125 1.8125 4.97917 1.96875 5.09375 2.14583C5.20833 2.13542 5.30729 2.11458 5.39062 2.08333C5.48438 2.04167 5.56771 2.00521 5.64062 1.97396C5.72396 1.94271 5.80729 1.91667 5.89062 1.89583C5.98438 1.86458 6.09375 1.85417 6.21875 1.86458C6.25 1.79167 6.30208 1.74479 6.375 1.72396C6.45833 1.69271 6.54167 1.67188 6.625 1.66146C6.70833 1.64062 6.78646 1.61458 6.85938 1.58333C6.93229 1.55208 6.97917 1.49479 7 1.41146C7.04167 1.44271 7.08854 1.45833 7.14062 1.45833C7.19271 1.45833 7.24479 1.45312 7.29688 1.44271C7.34896 1.42188 7.40625 1.41146 7.46875 1.41146C7.53125 1.41146 7.58333 1.43229 7.625 1.47396C7.89583 1.32812 8.18229 1.22396 8.48438 1.16146C8.79688 1.08854 9.10417 1.04688 9.40625 1.03646C10.125 0.640625 10.8802 0.369792 11.6719 0.223958C12.474 0.078125 13.276 0.00520833 14.0781 0.00520833C14.1927 0.00520833 14.3021 0.00520833 14.4062 0.00520833C14.5208 -0.00520833 14.6302 0 14.7344 0.0208333C14.849 0.0416667 14.974 0.078125 15.1094 0.130208C15.2552 0.182292 15.3958 0.244792 15.5312 0.317708C15.6771 0.390625 15.8125 0.473958 15.9375 0.567708C16.0625 0.651042 16.1667 0.729167 16.25 0.802083C16.3333 0.989583 16.375 1.17188 16.375 1.34896C16.375 1.43229 16.3698 1.51562 16.3594 1.59896C16.349 1.67188 16.3438 1.75 16.3438 1.83333C16.3438 1.95833 16.3698 2.09896 16.4219 2.25521C16.3906 2.24479 16.3385 2.23958 16.2656 2.23958C16.1719 2.23958 16.0938 2.26042 16.0312 2.30208C15.9688 2.34375 15.9115 2.39062 15.8594 2.44271C15.8073 2.49479 15.7552 2.54167 15.7031 2.58333C15.6615 2.625 15.6198 2.64583 15.5781 2.64583C15.4948 2.64583 15.4219 2.63021 15.3594 2.59896C15.3073 2.56771 15.25 2.53646 15.1875 2.50521C15.1354 2.46354 15.0781 2.43229 15.0156 2.41146C14.9531 2.38021 14.8802 2.36979 14.7969 2.38021V2.31771C14.7969 2.20312 14.7604 2.13021 14.6875 2.09896C14.6146 2.05729 14.5573 2 14.5156 1.92708C14.3594 1.91667 14.2031 1.89583 14.0469 1.86458C13.901 1.83333 13.75 1.81771 13.5938 1.81771C13.3854 1.81771 13.224 1.89062 13.1094 2.03646C13.0573 2.01562 13.0104 1.98958 12.9688 1.95833C12.9375 1.92708 12.8906 1.91667 12.8281 1.92708H12.7812C12.2188 1.92708 11.6667 1.98958 11.125 2.11458C10.5833 2.22917 10.0469 2.375 9.51562 2.55208C8.98438 2.71875 8.45312 2.90104 7.92188 3.09896C7.39062 3.29688 6.85938 3.46875 6.32812 3.61458C6.20312 3.78125 6.07292 3.90625 5.9375 3.98958C5.80208 4.0625 5.66667 4.125 5.53125 4.17708C5.40625 4.22917 5.28125 4.28125 5.15625 4.33333C5.03125 4.38542 4.92188 4.46875 4.82812 4.58333C4.74479 4.69792 4.67708 4.85938 4.625 5.06771C4.58333 5.26562 4.57292 5.54167 4.59375 5.89583C4.54167 5.95833 4.51042 6.02604 4.5 6.09896C4.48958 6.17188 4.47917 6.24479 4.46875 6.31771C4.45833 6.38021 4.44271 6.44271 4.42188 6.50521C4.40104 6.56771 4.36458 6.625 4.3125 6.67708C4.33333 6.78125 4.34896 6.88542 4.35938 6.98958C4.36979 7.09375 4.375 7.19792 4.375 7.30208C4.375 7.73958 4.30208 8.16667 4.15625 8.58333C4.20833 8.66667 4.23438 8.76042 4.23438 8.86458C4.23438 8.97917 4.21875 9.08333 4.1875 9.17708C4.15625 9.27083 4.14062 9.375 4.14062 9.48958C4.14062 9.60417 4.16146 9.69792 4.20312 9.77083C4.26562 9.77083 4.30208 9.79167 4.3125 9.83333H4.40625C4.59375 9.83333 4.75521 9.78646 4.89062 9.69271C5.02604 9.59896 5.17188 9.55208 5.32812 9.55208C5.35938 9.55208 5.39583 9.5625 5.4375 9.58333C5.47917 9.60417 5.51562 9.61458 5.54688 9.61458C5.61979 9.61458 5.65104 9.58854 5.64062 9.53646C5.63021 9.48438 5.65625 9.44792 5.71875 9.42708L6.28125 9.33333C6.63542 9.27083 6.96875 9.19792 7.28125 9.11458C7.60417 9.02083 7.92188 8.88542 8.23438 8.70833C8.30729 8.73958 8.39062 8.75521 8.48438 8.75521C8.56771 8.75521 8.65625 8.74479 8.75 8.72396C8.84375 8.69271 8.93229 8.67708 9.01562 8.67708C9.08854 8.67708 9.14583 8.6875 9.1875 8.70833C9.25 8.66667 9.32812 8.63542 9.42188 8.61458C9.51562 8.58333 9.56771 8.52083 9.57812 8.42708H9.60938C9.65104 8.42708 9.68229 8.4375 9.70312 8.45833C9.72396 8.47917 9.75521 8.48958 9.79688 8.48958H9.85938C10.0781 8.38542 10.276 8.30729 10.4531 8.25521C10.7448 8.18229 11.0573 8.11979 11.3906 8.06771C11.724 8.00521 12.0208 7.90104 12.2812 7.75521C12.5833 7.75521 12.875 7.70833 13.1562 7.61458C13.4479 7.51042 13.7396 7.45833 14.0312 7.45833C14.1667 7.45833 14.2917 7.47917 14.4062 7.52083C14.5104 7.44792 14.6302 7.39583 14.7656 7.36458C14.9115 7.33333 15.0312 7.27604 15.125 7.19271C15.1875 7.20312 15.25 7.21354 15.3125 7.22396C15.3854 7.22396 15.4583 7.22396 15.5312 7.22396C15.8438 7.22396 16.1406 7.18229 16.4219 7.09896C16.7135 7.00521 17.0104 6.9375 17.3125 6.89583C17.3854 6.97917 17.4323 7.06771 17.4531 7.16146C17.4844 7.24479 17.5 7.33333 17.5 7.42708Z" fill="white"/>
<path d="M26.2725 15.4583C26.2412 15.6042 26.1735 15.724 26.0694 15.8177C25.9756 15.901 25.861 15.9688 25.7256 16.0208C25.5902 16.0729 25.4496 16.1094 25.3037 16.1302C25.1683 16.1406 25.0433 16.1458 24.9287 16.1458C24.8767 16.1458 24.8246 16.1458 24.7725 16.1458C24.7308 16.1354 24.684 16.1302 24.6319 16.1302C24.5798 16.1302 24.5537 16.1562 24.5537 16.2083C24.5537 16.2604 24.5277 16.2969 24.4756 16.3177C24.4235 16.2969 24.3715 16.2812 24.3194 16.2708C24.2673 16.2604 24.2152 16.2552 24.1631 16.2552C24.0902 16.2552 24.0173 16.2604 23.9444 16.2708C23.8819 16.2812 23.8194 16.2865 23.7569 16.2865C23.6735 16.2865 23.611 16.276 23.5694 16.2552C23.5381 16.2344 23.5069 16.2135 23.4756 16.1927C23.4548 16.1615 23.4287 16.1302 23.3975 16.099C23.3767 16.0677 23.3402 16.0417 23.2881 16.0208C23.2152 15.9896 23.1527 15.9844 23.1006 16.0052C23.059 16.026 22.9912 15.9948 22.8975 15.9115C22.7725 15.8073 22.6631 15.6823 22.5694 15.5365C22.486 15.3802 22.4027 15.2188 22.3194 15.0521C22.236 14.8854 22.1475 14.7188 22.0537 14.5521C21.96 14.3854 21.8506 14.2396 21.7256 14.1146H21.6006C21.4131 14.1146 21.2829 14.1927 21.21 14.349C21.1579 14.3177 21.1058 14.2812 21.0537 14.2396C21.0017 14.1875 20.9444 14.1458 20.8819 14.1146C20.6423 14.1875 20.3923 14.25 20.1319 14.3021C19.8715 14.3542 19.611 14.3802 19.3506 14.3802H19.1319C19.0694 14.3802 19.0017 14.3698 18.9287 14.349C18.8246 14.3906 18.7308 14.4427 18.6475 14.5052C18.5642 14.5573 18.4704 14.5833 18.3662 14.5833C18.3037 14.5833 18.2308 14.5625 18.1475 14.5208C18.085 14.5208 18.0537 14.5469 18.0537 14.599C18.0642 14.651 18.0329 14.6771 17.96 14.6771H17.8194C17.6735 14.6771 17.5277 14.6823 17.3819 14.6927C17.2465 14.7031 17.1058 14.7083 16.96 14.7083C16.7621 14.7083 16.559 14.6823 16.3506 14.6302C16.2985 14.6615 16.2412 14.6771 16.1787 14.6771C16.1371 14.6979 16.1058 14.7344 16.085 14.7865C16.0642 14.8281 16.0433 14.8698 16.0225 14.9115C16.0017 14.9427 15.9704 14.974 15.9288 15.0052C15.8975 15.026 15.8506 15.0312 15.7881 15.0208C15.7673 15.1458 15.7152 15.2448 15.6319 15.3177C15.5485 15.3906 15.5069 15.5 15.5069 15.6458C15.3923 15.7083 15.2985 15.7865 15.2256 15.8802C15.1527 15.974 15.0798 16.0729 15.0069 16.1771C14.934 16.2812 14.8558 16.3802 14.7725 16.474C14.6996 16.5677 14.6058 16.6406 14.4913 16.6927C14.4392 16.7552 14.4235 16.8542 14.4444 16.9896C14.3298 17.0833 14.1892 17.1667 14.0225 17.2396C13.8558 17.3125 13.6996 17.349 13.5538 17.349C13.2517 17.349 13.0433 17.1875 12.9288 16.8646C12.9288 16.7604 12.9392 16.651 12.96 16.5365C12.9704 16.4115 12.9913 16.2969 13.0225 16.1927C13.0538 16.0781 13.1006 15.9792 13.1631 15.8958C13.2256 15.8021 13.3142 15.7344 13.4288 15.6927C13.4288 15.599 13.3975 15.5365 13.335 15.5052C13.2725 15.4635 13.2465 15.3958 13.2569 15.3021C13.5381 15.1667 13.7829 14.9896 13.9913 14.7708C14.1996 14.5521 14.3871 14.3229 14.5538 14.0833C14.7308 13.8333 14.9079 13.5833 15.085 13.3333C15.2621 13.0833 15.46 12.8594 15.6788 12.6615V12.3333C15.9913 12 16.1944 11.625 16.2881 11.2083C16.4027 11.1875 16.4756 11.1354 16.5069 11.0521C16.5485 10.9688 16.5694 10.8698 16.5694 10.7552C16.6215 10.7552 16.6527 10.7344 16.6631 10.6927C16.684 10.6406 16.7308 10.625 16.8037 10.6458C16.8975 10.3958 17.0017 10.1667 17.1162 9.95833C17.2308 9.75 17.3454 9.54167 17.46 9.33333C17.5746 9.11458 17.6735 8.89062 17.7569 8.66146C17.8506 8.43229 17.9183 8.17708 17.96 7.89583C18.1058 7.88542 18.184 7.81771 18.1944 7.69271C18.2152 7.55729 18.236 7.4375 18.2569 7.33333C18.4131 7.1875 18.5277 7.01562 18.6006 6.81771C18.684 6.61979 18.7569 6.41667 18.8194 6.20833C18.8819 5.98958 18.9496 5.77604 19.0225 5.56771C19.1058 5.34896 18.986 4.8125 19.1319 4.64583V4.59896C19.1319 4.54688 19.111 4.51562 19.0694 4.50521C19.0277 4.48438 19.0069 4.44792 19.0069 4.39583C19.0173 4.38542 19.0225 4.375 19.0225 4.36458C19.1475 4.3125 19.2412 4.22917 19.3037 4.11458C19.3662 3.98958 19.46 3.90104 19.585 3.84896C19.8037 4.02604 20.2308 4.47917 20.3975 4.52083C20.5642 4.55208 20.7829 4.57812 21.0537 4.59896C21.1892 4.74479 21.2621 4.92188 21.2725 5.13021C21.2933 5.32812 21.3298 5.52604 21.3819 5.72396C21.4652 6.05729 21.5537 6.38542 21.6475 6.70833C21.7517 7.02083 21.8298 7.34375 21.8819 7.67708C21.9131 7.875 21.9704 8.0625 22.0537 8.23958C22.1371 8.41667 22.1944 8.59896 22.2256 8.78646C22.2465 8.93229 22.2465 9.09896 22.2256 9.28646C22.2048 9.46354 22.2256 9.61979 22.2881 9.75521L22.3975 10.0052C22.4496 10.1198 22.4912 10.2396 22.5225 10.3646C22.5642 10.4896 22.6006 10.6146 22.6319 10.7396C22.7152 11.0521 22.7881 11.3906 22.8506 11.7552C22.9235 12.1094 23.0329 12.4323 23.1787 12.724C23.2308 12.8281 23.309 12.901 23.4131 12.9427C23.5277 12.9844 23.6527 13.0156 23.7881 13.0365C23.9235 13.0469 24.0537 13.0521 24.1787 13.0521C24.3142 13.0417 24.4287 13.0365 24.5225 13.0365H24.6787C24.7412 13.0365 24.8037 13.0469 24.8662 13.0677C24.9079 13.151 24.9287 13.224 24.9287 13.2865C24.9287 13.4115 24.8871 13.5104 24.8037 13.5833C24.7204 13.6562 24.6787 13.7396 24.6787 13.8333C24.6787 13.8854 24.6996 13.9427 24.7412 14.0052C24.6996 13.9948 24.6371 13.9896 24.5537 13.9896C24.3142 13.9896 24.0798 14.0312 23.8506 14.1146C23.934 14.2917 24.0433 14.4427 24.1787 14.5677C24.3246 14.6823 24.4756 14.7917 24.6319 14.8958C24.736 14.8125 24.8454 14.7708 24.96 14.7708C25.085 14.7708 25.1996 14.8021 25.3037 14.8646C25.4183 14.9167 25.5381 14.9427 25.6631 14.9427C25.7569 14.9427 25.8246 14.9271 25.8662 14.8958C25.9496 14.9896 26.0173 15.0885 26.0694 15.1927C26.1215 15.2865 26.1892 15.375 26.2725 15.4583ZM21.3819 12.9583C21.361 12.7812 21.3246 12.6562 21.2725 12.5833C21.2308 12.5 21.1944 12.401 21.1631 12.2865C21.1215 12.1406 21.0902 11.9844 21.0694 11.8177C21.059 11.651 21.0381 11.4896 21.0069 11.3333C20.934 10.9792 20.8506 10.625 20.7569 10.2708C20.6735 9.91667 20.5642 9.57292 20.4287 9.23958C20.4704 9.17708 20.4912 9.11979 20.4912 9.06771V9.02083C20.3975 8.91667 20.3298 8.79167 20.2881 8.64583C20.2465 8.48958 20.2048 8.33854 20.1631 8.19271C20.1319 8.03646 20.085 7.89583 20.0225 7.77083C19.9704 7.63542 19.8819 7.52604 19.7569 7.44271C19.7256 7.50521 19.71 7.57812 19.71 7.66146C19.71 7.73438 19.7152 7.80208 19.7256 7.86458C19.7465 7.92708 19.7569 7.99479 19.7569 8.06771C19.6527 8.11979 19.5746 8.20312 19.5225 8.31771C19.4808 8.42188 19.4079 8.50521 19.3037 8.56771C19.2204 8.90104 19.1006 9.21875 18.9444 9.52083C18.7881 9.8125 18.6215 10.1042 18.4444 10.3958C18.2777 10.6875 18.1162 10.9844 17.96 11.2865C17.8037 11.5781 17.6787 11.8854 17.585 12.2083C17.4496 12.3021 17.3558 12.4219 17.3037 12.5677C17.2621 12.7135 17.2412 12.8594 17.2412 13.0052C17.335 13.0573 17.4392 13.0885 17.5537 13.099C17.6787 13.099 17.7985 13.099 17.9131 13.099C18.0277 13.099 18.1371 13.1094 18.2412 13.1302C18.3454 13.151 18.4392 13.2031 18.5225 13.2865C18.6579 13.2448 18.8037 13.2188 18.96 13.2083C19.1267 13.1875 19.2621 13.1406 19.3662 13.0677C19.5746 13.1406 19.7985 13.1771 20.0381 13.1771C20.1631 13.1771 20.2829 13.1667 20.3975 13.1458C20.5225 13.125 20.6423 13.099 20.7569 13.0677C20.8506 13.0885 20.9235 13.125 20.9756 13.1771C21.0277 13.2188 21.1058 13.2344 21.21 13.224C21.2621 13.1823 21.2933 13.1406 21.3037 13.099C21.3142 13.0469 21.3402 13 21.3819 12.9583Z" fill="white"/>
<path d="M36.2637 6.33333C36.2429 6.45833 36.2117 6.56771 36.17 6.66146C36.1387 6.74479 36.1335 6.85938 36.1544 7.00521C36.0502 7.01562 35.9669 7.05208 35.9044 7.11458C35.8523 7.16667 35.8054 7.22917 35.7637 7.30208C35.7325 7.375 35.696 7.45312 35.6544 7.53646C35.6231 7.60938 35.5815 7.67708 35.5294 7.73958C35.6127 8.11458 35.6596 8.49479 35.67 8.88021C35.6804 9.26562 35.7065 9.64583 35.7481 10.0208C35.8002 10.5 35.8783 10.974 35.9825 11.4427C36.0971 11.901 36.1544 12.3698 36.1544 12.849C36.1544 12.9948 36.1492 13.1302 36.1387 13.2552C36.1387 13.3802 36.1387 13.5104 36.1387 13.6458C36.1387 13.7292 36.1387 13.8177 36.1387 13.9115C36.1492 13.9948 36.1544 14.0781 36.1544 14.1615C36.1544 14.4635 36.1127 14.7656 36.0294 15.0677C35.9565 15.3698 35.8992 15.6719 35.8575 15.974C35.7325 16.0885 35.6231 16.2135 35.5294 16.349C35.446 16.4844 35.3575 16.6094 35.2637 16.724C35.17 16.8385 35.0606 16.9375 34.9356 17.0208C34.8106 17.1146 34.6544 17.1771 34.4669 17.2083C34.4356 17.3125 34.3731 17.3906 34.2794 17.4427C34.196 17.4948 34.1231 17.5677 34.0606 17.6615H34.0294C33.769 17.6615 33.545 17.625 33.3575 17.5521C33.17 17.4792 32.9929 17.3958 32.8262 17.3021C32.67 17.2083 32.5085 17.1094 32.3419 17.0052C32.1752 16.901 31.9825 16.8177 31.7638 16.7552C31.4721 16.5156 31.2065 16.2552 30.9669 15.974C30.7273 15.6823 30.4565 15.4219 30.1544 15.1927C30.0815 14.9844 29.9825 14.8125 29.8575 14.6771C29.7429 14.5417 29.6283 14.3854 29.5138 14.2083C29.4617 14.1354 29.42 14.0677 29.3888 14.0052C29.3679 13.9427 29.3367 13.8698 29.295 13.7865C29.2638 13.7031 29.2117 13.6458 29.1388 13.6146C29.0763 13.5833 29.019 13.5469 28.9669 13.5052C28.8835 13.1823 28.7638 12.8854 28.6075 12.6146C28.4513 12.3438 28.269 12.0833 28.0606 11.8333C27.9981 11.9479 27.946 12.0729 27.9044 12.2083C27.8731 12.3333 27.8419 12.4635 27.8106 12.599C27.7794 12.724 27.7377 12.8542 27.6856 12.9896C27.644 13.1146 27.5867 13.2292 27.5138 13.3333V13.3802C27.5138 13.4323 27.5346 13.4635 27.5763 13.474C27.6179 13.4844 27.6388 13.5156 27.6388 13.5677C27.6388 13.5781 27.6335 13.5885 27.6231 13.599C27.6231 13.6094 27.6231 13.6198 27.6231 13.6302C27.571 13.6719 27.5294 13.724 27.4981 13.7865C27.4773 13.849 27.4252 13.8854 27.3419 13.8958C27.3523 13.9479 27.3575 14 27.3575 14.0521V14.1927C27.3575 14.4948 27.321 14.7969 27.2481 15.099C27.1856 15.401 27.1544 15.7083 27.1544 16.0208V16.224C27.1544 16.2969 27.1596 16.3646 27.17 16.4271C27.1908 16.4896 27.2221 16.5521 27.2638 16.6146C27.3054 16.6771 27.7638 17.0394 27.7638 17.0915C27.7638 17.1644 27.7325 17.2321 27.67 17.2946C27.7429 17.3467 27.8263 17.404 27.92 17.4665C28.0138 17.529 28.0971 17.5967 28.17 17.6696C28.2533 17.7529 28.321 17.8363 28.3731 17.9196C28.4252 18.0133 28.4513 18.1123 28.4513 18.2165C28.4513 18.3936 28.394 18.5186 28.2794 18.5915C28.1648 18.6644 28.0242 18.7217 27.8575 18.7633C27.7013 18.805 27.5346 18.8415 27.3575 18.8727C27.1908 18.9144 26.6127 18.6771 26.4981 18.7708H26.4513C26.3263 18.7708 26.2325 18.7344 26.17 18.6615C26.1075 18.5885 26.0138 18.5521 25.8888 18.5521C25.6908 18.2292 25.5554 17.8646 25.4825 17.4583C25.4096 17.0625 25.3731 16.6823 25.3731 16.3177C25.3731 15.8698 25.4148 15.4219 25.4981 14.974C25.571 14.526 25.6648 14.0833 25.7794 13.6458C25.8835 13.2083 25.9981 12.776 26.1231 12.349C26.2585 11.9115 26.3835 11.474 26.4981 11.0365L26.5138 10.9896C26.5138 10.9375 26.4981 10.901 26.4669 10.8802C26.446 10.8594 26.4356 10.8281 26.4356 10.7865C26.4356 10.7656 26.4408 10.7552 26.4513 10.7552C26.4825 10.651 26.5138 10.5521 26.545 10.4583C26.5867 10.3646 26.6179 10.2604 26.6388 10.1458C26.7013 9.85417 26.7429 9.55729 26.7638 9.25521C26.795 8.94271 26.8106 8.63542 26.8106 8.33333C26.821 8.03125 26.8315 7.72917 26.8419 7.42708C26.8627 7.11458 26.8992 6.80729 26.9513 6.50521C27.0346 6.42188 27.1127 6.33333 27.1856 6.23958C27.2585 6.14583 27.3523 6.0625 27.4669 5.98958C27.6752 6 27.8835 6.03125 28.0919 6.08333C28.3002 6.13542 28.4981 6.21875 28.6856 6.33333C28.8106 6.78125 28.894 7.22917 28.9356 7.67708C28.9877 8.125 29.071 8.57292 29.1856 9.02083V9.06771C29.1856 9.11979 29.2117 9.14583 29.2638 9.14583C29.3263 9.13542 29.3731 9.15104 29.4044 9.19271C29.3835 9.22396 29.3679 9.26042 29.3575 9.30208C29.3575 9.34375 29.3575 9.38542 29.3575 9.42708V9.69271C29.3783 9.77604 29.4044 9.86458 29.4356 9.95833C29.4669 10.0521 29.5346 10.1094 29.6388 10.1302C29.6908 10.4635 29.769 10.7708 29.8731 11.0521C29.9773 11.3333 30.0971 11.6042 30.2325 11.8646C30.3679 12.125 30.5138 12.3854 30.67 12.6458C30.8263 12.8958 30.9877 13.1615 31.1544 13.4427C31.4148 13.6406 31.6388 13.8698 31.8263 14.1302C32.0137 14.3802 32.2012 14.625 32.3887 14.8646C32.5867 15.0938 32.8054 15.2969 33.045 15.474C33.295 15.651 33.6179 15.7604 34.0137 15.8021C34.0658 15.7604 34.1023 15.7031 34.1231 15.6302L34.2012 15.4115C34.2325 15.3385 34.2637 15.276 34.295 15.224C34.3367 15.1615 34.394 15.1146 34.4669 15.0833C34.4877 14.7917 34.5085 14.4948 34.5294 14.1927C34.5606 13.8906 34.6283 13.6042 34.7325 13.3333C34.6804 13.2396 34.6544 13.125 34.6544 12.9896C34.6544 12.8854 34.6596 12.7865 34.67 12.6927C34.6908 12.599 34.7012 12.5052 34.7012 12.4115C34.7012 12.2135 34.6596 12.0521 34.5762 11.9271C34.5762 11.8542 34.5815 11.7812 34.5919 11.7083C34.6023 11.625 34.6335 11.5469 34.6856 11.474C34.6023 11.2656 34.5346 11.0469 34.4825 10.8177C34.4408 10.5885 34.42 10.3542 34.42 10.1146C34.42 9.97917 34.4356 9.83854 34.4669 9.69271C34.4044 9.53646 34.3627 9.35417 34.3419 9.14583L34.2794 8.50521C34.2585 8.28646 34.2273 8.08333 34.1856 7.89583C34.144 7.70833 34.0658 7.55729 33.9512 7.44271C34.0137 7.34896 34.045 7.23958 34.045 7.11458C34.045 6.90625 34.0137 6.70833 33.9512 6.52083C33.8887 6.33333 33.8575 6.13542 33.8575 5.92708C33.8575 5.78125 33.8887 5.63542 33.9512 5.48958C34.1804 5.5 34.4044 5.52604 34.6231 5.56771C34.8523 5.59896 35.0762 5.61458 35.295 5.61458C35.3575 5.69792 35.4304 5.76562 35.5137 5.81771C35.5971 5.86979 35.6856 5.92188 35.7794 5.97396C35.8731 6.01562 35.9617 6.0625 36.045 6.11458C36.1387 6.16667 36.2117 6.23958 36.2637 6.33333Z" fill="white"/>
<path d="M48.1613 8.89583C48.1613 9 48.1248 9.06771 48.0519 9.09896C47.979 9.13021 47.9425 9.19271 47.9425 9.28646C47.9425 9.31771 47.9529 9.34375 47.9738 9.36458C47.9946 9.38542 48.005 9.41667 48.005 9.45833V9.52083C47.88 10.125 47.6977 10.651 47.4581 11.099C47.229 11.5469 46.9581 11.9583 46.6456 12.3333C46.3331 12.7083 45.979 13.0625 45.5831 13.3958C45.1977 13.7292 44.781 14.0781 44.3331 14.4427C44.2081 14.5469 44.0779 14.651 43.9425 14.7552C43.8175 14.8594 43.6977 14.9688 43.5831 15.0833L43.2394 15.4115C43.229 15.4219 43.1717 15.4479 43.0675 15.4896C42.9633 15.5208 42.9008 15.5417 42.88 15.5521C42.7342 15.6146 42.5779 15.6875 42.4113 15.7708C42.255 15.8542 42.1196 15.9583 42.005 16.0833C41.7967 16.0833 41.6196 16.1146 41.4738 16.1771C41.3279 16.2396 41.1665 16.3229 40.9894 16.4271C40.9373 16.4271 40.8904 16.4167 40.8488 16.3958C40.8175 16.375 40.781 16.3542 40.7394 16.3333C40.6977 16.3125 40.6508 16.3021 40.5988 16.3021C40.5571 16.2917 40.4998 16.2969 40.4269 16.3177C40.3019 16.1094 40.1665 15.9323 40.0206 15.7865C39.8748 15.6406 39.6769 15.5521 39.4269 15.5208C39.3956 15.3438 39.3227 15.2083 39.2081 15.1146C39.0935 15.0104 38.979 14.901 38.8644 14.7865C38.8435 14.724 38.8279 14.651 38.8175 14.5677C38.8071 14.4844 38.7863 14.4062 38.755 14.3333C38.7238 14.2604 38.6821 14.1979 38.63 14.1458C38.5779 14.0938 38.505 14.0677 38.4113 14.0677C38.4008 14.0052 38.4269 13.974 38.4894 13.974C38.5519 13.974 38.5831 13.9479 38.5831 13.8958C38.5831 13.8333 38.5727 13.7708 38.5519 13.7083C38.531 13.6458 38.5206 13.5781 38.5206 13.5052C38.5206 13.4531 38.5258 13.4062 38.5363 13.3646C38.5467 13.3229 38.5623 13.276 38.5831 13.224C38.5519 12.9427 38.5363 12.6562 38.5363 12.3646C38.5363 11.8021 38.5727 11.25 38.6456 10.7083C38.729 10.1562 38.7706 9.59896 38.7706 9.03646C38.7706 8.78646 38.755 8.53646 38.7238 8.28646C38.7029 8.03646 38.656 7.79167 38.5831 7.55208C38.3435 7.60417 38.104 7.66667 37.8644 7.73958C37.6248 7.80208 37.4008 7.89062 37.1925 8.00521C37.0779 7.93229 36.9581 7.89062 36.8331 7.88021C36.6977 7.85938 36.5675 7.82812 36.4425 7.78646C36.3696 7.64062 36.3331 7.48958 36.3331 7.33333C36.3331 7.1875 36.3592 7.04688 36.4113 6.91146L36.5675 6.50521C36.8175 6.45312 37.0675 6.375 37.3175 6.27083C37.5571 6.16667 37.8019 6.07292 38.0519 5.98958C38.1352 5.96875 38.2394 5.94271 38.3644 5.91146C38.4998 5.88021 38.5935 5.85417 38.6456 5.83333C38.7185 5.80208 38.7654 5.74479 38.7863 5.66146C38.8175 5.56771 38.8592 5.48958 38.9113 5.42708H39.1769C39.2394 5.42708 39.3071 5.43229 39.38 5.44271C39.4529 5.44271 39.5206 5.45833 39.5831 5.48958C39.9581 5.39583 40.3331 5.33854 40.7081 5.31771C41.0831 5.28646 41.4685 5.24479 41.8644 5.19271C41.906 5.19271 41.9685 5.1875 42.0519 5.17708L42.3175 5.13021C42.4113 5.10938 42.4946 5.09375 42.5675 5.08333C42.6508 5.0625 42.7081 5.05208 42.7394 5.05208C42.7706 5.05208 42.7863 5.06771 42.7863 5.09896H43.0519C43.4998 5.09896 43.9373 5.15625 44.3644 5.27083L45.6456 5.61458C45.8227 5.76042 45.9998 5.90104 46.1769 6.03646C46.354 6.17188 46.5519 6.29167 46.7706 6.39583C46.8227 6.5625 46.9008 6.69792 47.005 6.80208C47.1196 6.89583 47.2446 7 47.38 7.11458C47.4321 7.25 47.4998 7.39583 47.5831 7.55208C47.6769 7.69792 47.7654 7.84896 47.8488 8.00521C47.9321 8.16146 48.005 8.31771 48.0675 8.47396C48.13 8.61979 48.1613 8.76042 48.1613 8.89583ZM46.7081 9.13021C46.5935 8.89062 46.4842 8.64062 46.38 8.38021C46.2758 8.11979 46.1456 7.88542 45.9894 7.67708C45.8019 7.625 45.6092 7.5625 45.4113 7.48958C45.2238 7.40625 45.0935 7.26562 45.0206 7.06771C44.9998 7.07812 44.9633 7.08333 44.9113 7.08333C44.8175 7.08333 44.7342 7.04688 44.6613 6.97396C44.5883 6.90104 44.505 6.85417 44.4113 6.83333C44.3279 6.82292 44.2133 6.80729 44.0675 6.78646C43.9321 6.76562 43.7863 6.75 43.63 6.73958C43.4738 6.72917 43.3175 6.71875 43.1613 6.70833C43.0154 6.69792 42.9008 6.69271 42.8175 6.69271C42.7342 6.69271 42.6456 6.69792 42.5519 6.70833C42.4685 6.70833 42.38 6.71354 42.2863 6.72396C42.2029 6.72396 42.1508 6.73958 42.13 6.77083C42.1092 6.79167 42.0675 6.8125 42.005 6.83333C41.9529 6.8125 41.8956 6.80208 41.8331 6.80208H41.6456C41.4269 6.80208 41.2081 6.83854 40.9894 6.91146C40.781 6.97396 40.5727 7.0625 40.3644 7.17708V7.23958C40.3644 7.32292 40.4008 7.36979 40.4738 7.38021C40.5467 7.39062 40.5883 7.43229 40.5988 7.50521C40.5467 7.50521 40.505 7.51042 40.4738 7.52083C40.4425 7.52083 40.4269 7.55729 40.4269 7.63021C40.4269 7.73438 40.4373 7.84896 40.4581 7.97396C40.4894 8.09896 40.505 8.22396 40.505 8.34896C40.505 8.44271 40.4946 8.55208 40.4738 8.67708C40.4529 8.80208 40.4008 8.90104 40.3175 8.97396C40.4217 9.06771 40.4738 9.19271 40.4738 9.34896C40.4738 9.45312 40.4529 9.5625 40.4113 9.67708C40.3696 9.79167 40.3175 9.89062 40.255 9.97396C40.2342 10.4115 40.1925 10.8542 40.13 11.3021C40.0675 11.75 40.0363 12.1927 40.0363 12.6302C40.0363 12.849 40.0467 13.0625 40.0675 13.2708C40.0988 13.4792 40.1456 13.6875 40.2081 13.8958C40.3227 14.0104 40.4425 14.099 40.5675 14.1615C40.7029 14.224 40.8435 14.2865 40.9894 14.349V14.3958C40.9894 14.4271 40.9685 14.4583 40.9269 14.4896C40.8852 14.5208 40.8644 14.5625 40.8644 14.6146C40.8644 14.6562 40.8852 14.6771 40.9269 14.6771C41.3644 14.5521 41.7758 14.401 42.1613 14.224C42.5467 14.0469 42.906 13.8073 43.2394 13.5052C43.2706 13.474 43.3019 13.4583 43.3331 13.4583C43.354 13.4583 43.38 13.4635 43.4113 13.474C43.4529 13.4844 43.4894 13.4948 43.5206 13.5052L43.505 13.4427C43.505 13.3802 43.5206 13.3229 43.5519 13.2708C43.5935 13.2188 43.6404 13.1719 43.6925 13.1302L43.8488 12.9896C43.9008 12.9375 43.9425 12.8854 43.9738 12.8333C44.0571 12.8125 44.1144 12.7708 44.1456 12.7083C44.1873 12.6458 44.255 12.6146 44.3488 12.6146C44.3696 12.5 44.4269 12.4167 44.5206 12.3646C44.6144 12.3021 44.6717 12.2135 44.6925 12.099C44.9008 11.9844 45.0831 11.8438 45.2394 11.6771C45.406 11.5104 45.5571 11.3333 45.6925 11.1458C45.8383 10.9583 45.9738 10.7656 46.0988 10.5677C46.2238 10.3594 46.354 10.1615 46.4894 9.97396V9.91146C46.4894 9.74479 46.5154 9.60938 46.5675 9.50521C46.63 9.40104 46.6769 9.27604 46.7081 9.13021Z" fill="white"/>
<path d="M58.5744 7.55208C58.5119 7.64583 58.4754 7.75 58.465 7.86458C58.4546 7.97917 58.4494 8.08333 58.4494 8.17708C58.4494 8.30208 58.4494 8.42708 58.4494 8.55208C58.4598 8.66667 58.465 8.78125 58.465 8.89583V9.13021C58.4442 9.20312 58.4129 9.27604 58.3713 9.34896C58.3296 9.42188 58.2983 9.49479 58.2775 9.56771C58.1317 9.95312 58.0588 10.3385 58.0588 10.724V10.7552C58.0067 10.8802 57.9546 10.9948 57.9025 11.099C57.8608 11.2031 57.8192 11.3073 57.7775 11.4115C57.7358 11.5052 57.7046 11.6094 57.6838 11.724C57.6629 11.8281 57.6577 11.9531 57.6681 12.099C57.5223 12.4635 57.3296 12.7969 57.09 13.099C56.8504 13.3906 56.616 13.6927 56.3869 14.0052C56.1681 14.0885 55.965 14.1979 55.7775 14.3333C55.6004 14.4688 55.4285 14.6198 55.2619 14.7865C54.939 14.8906 54.6213 15.0104 54.3088 15.1458C53.9963 15.2812 53.715 15.4635 53.465 15.6927C53.2671 15.7135 53.0692 15.7448 52.8713 15.7865C52.6733 15.8281 52.4806 15.8906 52.2931 15.974H52.1056C52.0119 15.974 51.9442 15.9531 51.9025 15.9115C51.7671 15.9844 51.6265 16.0365 51.4806 16.0677C51.3348 16.0885 51.189 16.099 51.0431 16.099C50.8556 16.099 50.6681 16.0885 50.4806 16.0677C50.3035 16.0365 50.1213 16.0052 49.9338 15.974C49.8296 15.8281 49.6838 15.7188 49.4963 15.6458C49.3088 15.5625 49.1421 15.4844 48.9963 15.4115C48.6942 14.9948 48.4754 14.5938 48.34 14.2083C48.2046 13.8125 48.064 13.3698 47.9181 12.8802C47.939 12.7344 47.9754 12.5938 48.0275 12.4583C48.0796 12.3125 48.1004 12.1562 48.09 11.9896C48.2775 11.4479 48.5223 10.9583 48.8244 10.5208C49.1369 10.0729 49.491 9.64583 49.8869 9.23958C49.8869 9.17708 49.8973 9.125 49.9181 9.08333C49.9494 9.04167 49.9546 8.97917 49.9338 8.89583C49.9442 8.90625 49.965 8.91146 49.9963 8.91146C50.0796 8.91146 50.1317 8.89062 50.1525 8.84896C50.1733 8.79688 50.1785 8.73958 50.1681 8.67708C50.5431 8.4375 50.8817 8.16146 51.1838 7.84896C51.4963 7.53646 51.8504 7.27604 52.2463 7.06771C52.2775 6.97396 52.3296 6.89583 52.4025 6.83333C52.4754 6.77083 52.5327 6.69792 52.5744 6.61458C52.9077 6.52083 53.2098 6.38021 53.4806 6.19271C53.7515 6.00521 54.0379 5.83854 54.34 5.69271C54.5067 5.59896 54.6629 5.53646 54.8088 5.50521C54.965 5.46354 55.1317 5.42188 55.3088 5.38021C55.3713 5.35938 55.4285 5.34375 55.4806 5.33333C55.5327 5.32292 55.59 5.31771 55.6525 5.31771C55.84 5.31771 56.0223 5.35417 56.1994 5.42708C56.3765 5.48958 56.5588 5.52083 56.7463 5.52083C56.7983 5.52083 56.84 5.52083 56.8713 5.52083C56.9129 5.51042 56.9546 5.5 56.9963 5.48958C57.1733 5.70833 57.3973 5.875 57.6681 5.98958C57.7306 6.14583 57.8035 6.28125 57.8869 6.39583C57.9806 6.51042 58.0744 6.625 58.1681 6.73958C58.2619 6.84375 58.3452 6.96354 58.4181 7.09896C58.5015 7.22396 58.5535 7.375 58.5744 7.55208ZM57.0119 8.36458C57.0119 8.3125 57.0067 8.26562 56.9963 8.22396C56.8921 8.19271 56.7931 8.15104 56.6994 8.09896C56.6056 8.04688 56.5015 8.02083 56.3869 8.02083C56.314 8.02083 56.241 8.03646 56.1681 8.06771C56.1577 7.99479 56.1265 7.94271 56.0744 7.91146C56.0327 7.88021 55.9806 7.85417 55.9181 7.83333C55.866 7.80208 55.8088 7.78125 55.7463 7.77083C55.6942 7.75 55.6473 7.71875 55.6056 7.67708C55.5744 7.59375 55.5379 7.51042 55.4963 7.42708C55.465 7.33333 55.4025 7.26562 55.3088 7.22396C55.215 7.31771 55.1056 7.39583 54.9806 7.45833C54.8556 7.51042 54.7254 7.5625 54.59 7.61458C54.465 7.66667 54.34 7.72917 54.215 7.80208C54.1004 7.875 54.0015 7.96354 53.9181 8.06771H53.6369C53.5744 8.18229 53.4858 8.27083 53.3713 8.33333C53.2567 8.38542 53.1577 8.46354 53.0744 8.56771C52.9077 8.65104 52.7515 8.75521 52.6056 8.88021C52.4702 8.99479 52.3348 9.11979 52.1994 9.25521C52.064 9.38021 51.9285 9.51042 51.7931 9.64583C51.6681 9.78125 51.5327 9.90625 51.3869 10.0208C51.2515 10.3125 51.1004 10.5677 50.9338 10.7865C50.7775 10.9948 50.6265 11.2083 50.4806 11.4271C50.3452 11.6458 50.2254 11.8854 50.1213 12.1458C50.0275 12.3958 49.9806 12.7083 49.9806 13.0833V13.2396C49.9806 13.2917 49.9858 13.3438 49.9963 13.3958C50.1317 13.5417 50.241 13.6979 50.3244 13.8646C50.4181 14.0312 50.5692 14.151 50.7775 14.224C50.9858 14.3073 51.2046 14.3438 51.4338 14.3333C51.6733 14.3229 51.9025 14.349 52.1213 14.4115C52.6213 14.3177 53.1004 14.1667 53.5588 13.9583C54.0275 13.7396 54.4702 13.4792 54.8869 13.1771C54.9494 13.125 55.0223 13.0729 55.1056 13.0208C55.189 12.9583 55.2567 12.8958 55.3088 12.8333C55.3608 12.7812 55.4025 12.724 55.4338 12.6615C55.4754 12.599 55.5171 12.5417 55.5588 12.4896C55.6421 12.3542 55.7358 12.2188 55.84 12.0833C55.9442 11.9479 56.0535 11.8229 56.1681 11.7083C56.2202 11.4792 56.2879 11.2604 56.3713 11.0521C56.4546 10.8333 56.5379 10.6198 56.6213 10.4115C56.7046 10.2031 56.7723 9.98958 56.8244 9.77083C56.8869 9.55208 56.9181 9.32292 56.9181 9.08333C56.9181 9.03125 56.9129 8.97396 56.9025 8.91146C56.9025 8.84896 56.8973 8.79167 56.8869 8.73958C56.9702 8.625 57.0119 8.5 57.0119 8.36458Z" fill="white"/>
<path d="M74.5712 15.3177C74.5191 15.4844 74.5035 15.651 74.5244 15.8177C74.4931 15.8594 74.4566 15.8854 74.415 15.8958C74.3733 15.9062 74.3316 15.9219 74.29 15.9427C74.2483 15.9531 74.2119 15.974 74.1806 16.0052C74.1598 16.026 74.1598 16.0729 74.1806 16.1458C73.8369 16.1667 73.4563 15.5521 73.1438 15.6771C72.8313 15.8021 72.524 15.9375 72.2219 16.0833C72.0656 16.0312 71.9302 15.9688 71.8156 15.8958C71.701 15.8229 71.5552 15.776 71.3781 15.7552C71.201 15.401 71.0344 15.0312 70.8781 14.6458C70.7323 14.25 70.6594 13.8542 70.6594 13.4583C70.6594 13.1667 70.7115 12.901 70.8156 12.6615C70.8156 12.349 70.8417 12.0417 70.8938 11.7396C70.9458 11.4375 71.0031 11.1406 71.0656 10.849C71.1385 10.5469 71.201 10.2448 71.2531 9.94271C71.3052 9.64062 71.3313 9.33333 71.3313 9.02083V8.67708C71.3104 8.67708 71.2844 8.70312 71.2531 8.75521C71.2219 8.79688 71.1906 8.84896 71.1594 8.91146C71.1385 8.96354 71.1177 9.01562 71.0969 9.06771C71.076 9.11979 71.0604 9.15104 71.05 9.16146C70.8729 9.29688 70.7323 9.46875 70.6281 9.67708C70.5344 9.875 70.4302 10.0625 70.3156 10.2396C70.1698 10.4583 70.0135 10.6719 69.8469 10.8802C69.6906 11.0885 69.4927 11.25 69.2531 11.3646V11.3958C69.2531 11.4479 69.2375 11.4844 69.2063 11.5052C69.175 11.526 69.1698 11.5781 69.1906 11.6615C68.9302 11.7448 68.6854 11.8646 68.4563 12.0208C68.2375 12.1771 68.0552 12.375 67.9094 12.6146C67.701 12.6667 67.5031 12.7396 67.3156 12.8333C67.1385 12.9167 66.9563 13.0104 66.7688 13.1146C66.6854 13.1562 66.5969 13.2083 66.5031 13.2708C66.4094 13.3333 66.3156 13.375 66.2219 13.3958C66.1385 13.4271 66.024 13.4479 65.8781 13.4583C65.7427 13.4688 65.5969 13.4792 65.4406 13.4896C65.2948 13.5 65.149 13.5052 65.0031 13.5052H64.6594C64.6073 13.5052 64.5396 13.4792 64.4563 13.4271C64.3729 13.375 64.2792 13.3177 64.175 13.2552C64.0813 13.1927 63.9823 13.1354 63.8781 13.0833C63.774 13.0208 63.675 12.9792 63.5812 12.9583C63.4979 12.6875 63.3781 12.4479 63.2219 12.2396C63.076 12.0208 62.9198 11.8021 62.7531 11.5833C62.701 11.3333 62.6281 11.0729 62.5344 10.8021C62.451 10.5312 62.3 10.3073 62.0812 10.1302C62.1333 10.0573 62.1594 9.97396 62.1594 9.88021C62.1594 9.76562 62.1333 9.65625 62.0812 9.55208C62.0292 9.44792 62.0031 9.33333 62.0031 9.20833C62.0031 9.125 62.0083 9.0625 62.0187 9.02083C61.9042 9.14583 61.8208 9.30729 61.7687 9.50521C61.7271 9.69271 61.7062 9.86458 61.7062 10.0208C61.7062 10.1458 61.7219 10.2604 61.7531 10.3646C61.649 10.5104 61.5812 10.6927 61.55 10.9115C61.5292 11.1302 61.5187 11.3229 61.5187 11.4896C61.5187 11.6979 61.5344 11.901 61.5656 12.099C61.399 12.2656 61.3156 12.4688 61.3156 12.7083C61.3156 12.8438 61.3469 12.9635 61.4094 13.0677C61.4094 13.1094 61.399 13.1406 61.3781 13.1615C61.3573 13.1823 61.3312 13.1979 61.3 13.2083C61.2792 13.2188 61.2531 13.2344 61.2219 13.2552C61.201 13.2656 61.1906 13.2917 61.1906 13.3333C61.1906 13.3854 61.1906 13.4427 61.1906 13.5052C61.201 13.5677 61.2062 13.6302 61.2062 13.6927C61.2062 13.8385 61.201 13.9896 61.1906 14.1458C61.1802 14.3021 61.175 14.4531 61.175 14.599C61.175 14.901 61.201 15.1198 61.2531 15.2552C61.3156 15.3802 61.3885 15.474 61.4719 15.5365C61.5656 15.599 61.6646 15.6615 61.7687 15.724C61.8729 15.7865 61.9771 15.9063 62.0812 16.0833C62.05 16.1771 61.9927 16.2552 61.9094 16.3177C61.8365 16.3698 61.7635 16.4271 61.6906 16.4896C61.6281 16.5417 61.5708 16.6042 61.5187 16.6771C61.4667 16.75 61.4458 16.8542 61.4562 16.9896H61.3781C61.2427 16.9896 61.1125 17.0104 60.9875 17.0521C60.8625 17.0938 60.7323 17.1146 60.5969 17.1146C60.5656 17.1146 60.5344 17.1094 60.5031 17.099C60.4719 17.099 60.4406 17.099 60.4094 17.099L60.2531 17.0052C60.201 16.974 60.149 16.9583 60.0969 16.9583C60.0448 16.9583 59.9771 16.9688 59.8937 16.9896C59.7479 16.5208 59.6333 16.0365 59.55 15.5365C59.4771 15.0365 59.4406 14.5469 59.4406 14.0677C59.4406 14.0156 59.451 13.9635 59.4719 13.9115C59.5031 13.849 59.5448 13.8281 59.5969 13.849V13.5521C59.5969 13.2292 59.6229 12.9167 59.675 12.6146C59.7375 12.3021 59.7687 11.9792 59.7687 11.6458C59.7687 11.5521 59.7635 11.4583 59.7531 11.3646C59.7531 11.2708 59.7479 11.1823 59.7375 11.099C59.7896 10.9219 59.8417 10.7448 59.8937 10.5677C59.9562 10.3802 59.9875 10.1875 59.9875 9.98958C59.9875 9.90625 59.9719 9.80729 59.9406 9.69271C60.024 9.63021 60.0865 9.55208 60.1281 9.45833C60.1698 9.35417 60.201 9.24479 60.2219 9.13021C60.2427 9.00521 60.2583 8.88542 60.2687 8.77083C60.2792 8.65625 60.2896 8.55208 60.3 8.45833C60.4042 8.25 60.4615 8.02604 60.4719 7.78646C60.4823 7.54688 60.5344 7.32292 60.6281 7.11458C60.6177 7.07292 60.6125 7 60.6125 6.89583C60.6125 6.6875 60.6437 6.47917 60.7062 6.27083C60.7792 6.05208 60.9198 5.88542 61.1281 5.77083C61.3156 5.84375 61.5344 5.88021 61.7844 5.88021C62.024 5.88021 62.2531 5.84375 62.4719 5.77083C62.5344 5.79167 62.5917 5.81771 62.6437 5.84896C62.6958 5.86979 62.7479 5.89583 62.8 5.92708C62.8625 5.94792 62.925 5.96875 62.9875 5.98958C63.05 6 63.1229 6 63.2062 5.98958C63.3104 6.29167 63.399 6.59896 63.4719 6.91146C63.5552 7.22396 63.6177 7.54167 63.6594 7.86458C63.6802 8 63.6854 8.14583 63.675 8.30208C63.675 8.45833 63.6854 8.60417 63.7062 8.73958C63.7167 8.82292 63.7427 8.90104 63.7844 8.97396C63.826 9.03646 63.8677 9.10938 63.9094 9.19271C63.951 9.27604 63.9823 9.36979 64.0031 9.47396C64.0344 9.57812 64.0448 9.70833 64.0344 9.86458C64.149 10.1354 64.274 10.3958 64.4094 10.6458C64.5552 10.8854 64.7115 11.125 64.8781 11.3646C64.9719 11.3958 65.0552 11.4375 65.1281 11.4896C65.201 11.5312 65.2479 11.6042 65.2688 11.7083C65.3625 11.7083 65.4458 11.724 65.5188 11.7552L65.7844 11.8333C66.1802 11.7083 66.5448 11.5417 66.8781 11.3333C67.2219 11.125 67.5813 10.9479 67.9563 10.8021C68.4146 10.3542 68.8104 9.85938 69.1438 9.31771C69.4771 8.76562 69.8104 8.21875 70.1438 7.67708V7.33333C70.2063 7.30208 70.2583 7.26562 70.3 7.22396C70.3521 7.17188 70.4146 7.13542 70.4875 7.11458C70.4979 6.98958 70.524 6.86979 70.5656 6.75521C70.6177 6.63021 70.6698 6.51562 70.7219 6.41146C70.7844 6.29688 70.8365 6.1875 70.8781 6.08333C70.9198 5.96875 70.9406 5.84896 70.9406 5.72396C70.9406 5.65104 70.9354 5.58854 70.925 5.53646C71.0813 5.38021 71.2688 5.30208 71.4875 5.30208C71.6958 5.30208 71.9042 5.35417 72.1125 5.45833C72.3313 5.55208 72.5344 5.64062 72.7219 5.72396C72.8365 5.97396 72.9198 6.23958 72.9719 6.52083C73.0344 6.79167 73.076 7.07292 73.0969 7.36458C73.1177 7.65625 73.1281 7.94792 73.1281 8.23958V9.34896C73.1177 9.43229 73.0865 9.49479 73.0344 9.53646C72.9927 9.56771 72.9615 9.61979 72.9406 9.69271V9.84896C72.9406 9.90104 72.9354 9.95312 72.925 10.0052C72.925 10.224 72.899 10.4531 72.8469 10.6927C72.7948 10.9948 72.7271 11.3021 72.6438 11.6146C72.5708 11.9167 72.5344 12.224 72.5344 12.5365C72.5344 12.651 72.5396 12.7656 72.55 12.8802C72.5604 12.9948 72.5813 13.1094 72.6125 13.224C72.5604 13.3177 72.5344 13.4375 72.5344 13.5833C72.5344 13.75 72.5604 13.9062 72.6125 14.0521C72.675 14.1875 72.7479 14.3229 72.8313 14.4583C72.9771 14.4583 73.1229 14.4531 73.2688 14.4427C73.4146 14.4323 73.5656 14.4271 73.7219 14.4271C73.9202 15.1146 74.0556 15.1302 74.1806 15.1615C74.3056 15.1823 74.4358 15.2344 74.5712 15.3177Z" fill="white"/>
<path d="M85.8069 11.9583C85.7027 11.9688 85.609 11.9948 85.5256 12.0365C85.4527 12.0781 85.3746 12.1094 85.2913 12.1302C85.3017 12.1406 85.3069 12.1562 85.3069 12.1771C85.3069 12.2396 85.2913 12.2865 85.26 12.3177C85.2288 12.3385 85.2235 12.3906 85.2444 12.474C85.0881 12.5573 84.9267 12.6198 84.76 12.6615C84.5933 12.7031 84.4215 12.7396 84.2444 12.7708C84.0777 12.8021 83.911 12.8385 83.7444 12.8802C83.5777 12.9219 83.4215 12.9896 83.2756 13.0833V12.9115C83.1506 12.9844 83.0308 13.0208 82.9163 13.0208C82.8121 13.0208 82.7131 13.0052 82.6194 12.974C82.5256 12.9323 82.4215 12.9115 82.3069 12.9115C82.2548 12.9115 82.1871 12.9323 82.1038 12.974C81.9996 12.9635 81.9163 12.9375 81.8538 12.8958C81.8017 12.8438 81.734 12.7917 81.6506 12.7396C81.5985 12.8438 81.5204 12.9115 81.4163 12.9427C81.3225 12.9635 81.234 12.974 81.1506 12.974C81.036 12.974 80.9267 12.9688 80.8225 12.9583C80.7288 12.9479 80.635 12.9323 80.5413 12.9115C80.3746 12.9635 80.2183 12.9948 80.0725 13.0052C79.9267 13.0052 79.7704 13.0052 79.6038 13.0052C79.4579 13.0052 79.3173 13.0156 79.1819 13.0365C79.0569 13.0469 78.9267 13.0833 78.7913 13.1458C78.7496 13.0417 78.661 12.9896 78.5256 12.9896C78.4631 12.9896 78.3954 12.9948 78.3225 13.0052C78.26 13.0052 78.1975 13.0052 78.135 13.0052C78.0308 13.0052 77.9527 12.974 77.9006 12.9115C77.859 12.9323 77.8381 12.9688 77.8381 13.0208C77.8485 13.0729 77.8485 13.1146 77.8381 13.1458C77.6819 13.0833 77.5152 13.0521 77.3381 13.0521C77.1923 13.0521 77.0517 13.0677 76.9163 13.099C76.7808 13.1302 76.6454 13.1458 76.51 13.1458C76.4371 13.1458 76.3642 13.1354 76.2913 13.1146C76.2183 13.0938 76.1558 13.0833 76.1038 13.0833C76.0413 13.0833 75.9944 13.099 75.9631 13.1302C75.9319 13.151 75.9006 13.1771 75.8694 13.2083C75.8485 13.2292 75.8173 13.2552 75.7756 13.2865C75.7444 13.3073 75.6975 13.3177 75.635 13.3177C75.5204 13.3177 75.4423 13.2865 75.4006 13.224C75.359 13.151 75.2965 13.1042 75.2131 13.0833C75.2131 12.9792 75.1975 12.8854 75.1663 12.8021C75.135 12.7188 75.0985 12.6354 75.0569 12.5521C75.0152 12.4583 74.9788 12.3698 74.9475 12.2865C74.9163 12.2031 74.9006 12.1094 74.9006 12.0052C74.9006 11.974 74.9006 11.9427 74.9006 11.9115C74.911 11.8698 74.9163 11.8333 74.9163 11.8021C75.0621 11.5938 75.2704 11.4479 75.5413 11.3646C75.8225 11.2708 76.0777 11.224 76.3069 11.224C76.4215 11.224 76.5048 11.2448 76.5569 11.2865C76.6194 11.3281 76.6923 11.3854 76.7756 11.4583C77.5048 11.375 78.234 11.3177 78.9631 11.2865C79.7027 11.2552 80.4371 11.2188 81.1663 11.1771C81.4058 11.1562 81.6454 11.1406 81.885 11.1302C82.1246 11.1094 82.3642 11.0885 82.6038 11.0677C82.635 11.0677 82.6558 11.0573 82.6663 11.0365C82.6767 11.0052 82.6819 10.974 82.6819 10.9427C82.6923 10.9115 82.7027 10.8854 82.7131 10.8646C82.734 10.8438 82.7652 10.8333 82.8069 10.8333C82.9215 10.8333 82.9996 10.8698 83.0413 10.9427C83.0829 11.0052 83.1454 11.0469 83.2288 11.0677C83.3017 11.026 83.385 10.9948 83.4788 10.974C83.5829 10.9531 83.6819 10.9375 83.7756 10.9271C83.8694 10.9062 83.9579 10.8854 84.0413 10.8646C84.135 10.8333 84.2131 10.7865 84.2756 10.724C84.359 10.7135 84.4058 10.7344 84.4163 10.7865C84.4267 10.8281 84.4579 10.8594 84.51 10.8802C84.5621 10.8698 84.6194 10.8594 84.6819 10.849C84.7444 10.8281 84.8017 10.8177 84.8538 10.8177H84.9631C85.0048 10.8177 85.0413 10.8229 85.0725 10.8333C85.1663 11.0417 85.286 11.2292 85.4319 11.3958C85.5881 11.5625 85.7131 11.75 85.8069 11.9583Z" fill="white"/>
<path d="M108.829 20.099C108.829 20.2135 108.803 20.3229 108.751 20.4271C108.543 20.5417 108.324 20.6198 108.095 20.6615C107.876 20.7135 107.658 20.7396 107.439 20.7396C107.335 20.7396 107.22 20.7344 107.095 20.724C106.98 20.724 106.876 20.7135 106.783 20.6927C106.751 20.6823 106.715 20.6615 106.673 20.6302C106.631 20.599 106.59 20.5833 106.548 20.5833C106.444 20.5833 106.345 20.599 106.251 20.6302C106.158 20.6719 106.059 20.6927 105.954 20.6927C105.902 20.6927 105.85 20.6771 105.798 20.6458C105.756 20.6146 105.71 20.5938 105.658 20.5833C105.585 20.5625 105.512 20.5573 105.439 20.5677C105.366 20.5781 105.288 20.5833 105.204 20.5833C105.09 20.5833 104.986 20.5677 104.892 20.5365C104.809 20.5052 104.73 20.4479 104.658 20.3646C104.397 20.3333 104.142 20.2812 103.892 20.2083C103.642 20.1458 103.392 20.0729 103.142 19.9896C102.892 19.9167 102.642 19.8438 102.392 19.7708C102.142 19.7083 101.887 19.6667 101.626 19.6458C101.564 19.5729 101.491 19.5156 101.408 19.474C101.324 19.4427 101.262 19.3854 101.22 19.3021C101.168 19.3021 101.131 19.3073 101.111 19.3177C101.09 19.3385 101.053 19.349 101.001 19.349C100.824 19.2031 100.631 19.0781 100.423 18.974C100.225 18.8698 100.017 18.7708 99.7981 18.6771C99.5898 18.5833 99.3815 18.4844 99.1731 18.3802C98.9752 18.2865 98.7877 18.1615 98.6106 18.0052H98.5325C98.4492 18.0156 98.3763 17.9948 98.3138 17.9427C98.2617 17.901 98.194 17.8802 98.1106 17.8802C98.0585 17.8802 98.0169 17.8854 97.9856 17.8958C97.9544 17.8125 97.9075 17.7448 97.845 17.6927C97.7825 17.6406 97.7148 17.5885 97.6419 17.5365C97.5794 17.4948 97.5169 17.4479 97.4544 17.3958C97.3919 17.3542 97.345 17.2969 97.3138 17.224C97.0533 17.1302 96.7981 17.0156 96.5481 16.8802C96.3085 16.7552 96.095 16.5885 95.9075 16.3802C95.6992 16.3594 95.5273 16.2969 95.3919 16.1927C95.2565 16.0781 95.1315 15.9375 95.0169 15.7708C94.7669 15.6875 94.5377 15.5781 94.3294 15.4427C94.121 15.3073 93.9127 15.1667 93.7044 15.0208C93.5065 14.875 93.2929 14.7448 93.0638 14.6302C92.845 14.5052 92.595 14.4167 92.3138 14.3646C92.3033 14.2917 92.2721 14.2396 92.22 14.2083C92.1679 14.1667 92.1054 14.1354 92.0325 14.1146C91.97 14.0833 91.9075 14.0573 91.845 14.0365C91.7825 14.0156 91.7356 13.974 91.7044 13.9115C91.6731 13.9115 91.6419 13.9115 91.6106 13.9115C91.5794 13.901 91.5481 13.8958 91.5169 13.8958C91.4856 13.8958 91.4492 13.901 91.4075 13.9115C91.3763 13.9115 91.345 13.9115 91.3138 13.9115L91.3294 13.8646C91.3294 13.8229 91.3138 13.7969 91.2825 13.7865C91.2617 13.776 91.2304 13.7656 91.1888 13.7552C91.1471 13.7448 91.1106 13.7292 91.0794 13.7083C91.0481 13.6875 91.0325 13.6406 91.0325 13.5677H90.9856C90.871 13.5677 90.7669 13.5469 90.6731 13.5052C90.5794 13.4635 90.4752 13.4323 90.3606 13.4115C90.3398 13.526 90.3294 13.6354 90.3294 13.7396V14.0208C90.3294 14.4896 90.3815 14.9844 90.4856 15.5052C90.5898 16.0156 90.7513 16.474 90.97 16.8802C91.1888 16.9635 91.3763 17.0729 91.5325 17.2083C91.6888 17.3438 91.8398 17.5 91.9856 17.6771C91.996 17.9583 91.8919 18.1927 91.6731 18.3802C91.4648 18.5781 91.22 18.6771 90.9388 18.6771C90.7825 18.6771 90.6367 18.6354 90.5013 18.5521C90.3763 18.4792 90.2721 18.3698 90.1888 18.224C90.1263 18.224 90.069 18.2344 90.0169 18.2552C89.9648 18.2865 89.9023 18.3021 89.8294 18.3021C89.7981 18.3021 89.7669 18.2969 89.7356 18.2865C89.6315 18.1094 89.5273 17.9531 89.4231 17.8177C89.3294 17.6823 89.2669 17.5 89.2356 17.2708C89.121 17.2188 89.0481 17.125 89.0169 16.9896C88.996 16.8542 88.9388 16.7448 88.845 16.6615C88.8033 16.1927 88.746 15.724 88.6731 15.2552C88.6106 14.7865 88.5794 14.3177 88.5794 13.849C88.5794 13.7448 88.5846 13.6406 88.595 13.5365C88.6054 13.4219 88.6158 13.3073 88.6263 13.1927C88.6054 13.1406 88.5742 13.0938 88.5325 13.0521C88.5013 13 88.4752 12.9479 88.4544 12.8958C88.246 12.9479 88.0273 13 87.7981 13.0521C87.5794 13.0938 87.3554 13.1146 87.1263 13.1146C86.9804 13.1146 86.8033 13.0938 86.595 13.0521C86.3867 13 86.2252 12.9323 86.1106 12.849C86.0273 12.7969 85.97 12.7031 85.9388 12.5677C85.8971 12.4219 85.8763 12.2969 85.8763 12.1927C85.8763 12.0156 85.9075 11.8385 85.97 11.6615C86.0325 11.474 86.1158 11.3125 86.22 11.1771C86.7304 10.9688 87.2044 10.7135 87.6419 10.4115C88.0898 10.1094 88.5273 9.78125 88.9544 9.42708C88.9648 9.32292 88.9804 9.21875 89.0013 9.11458C89.0325 9.01042 89.0481 8.90104 89.0481 8.78646C89.0481 8.66146 89.0169 8.54167 88.9544 8.42708C89.0169 8.36458 89.0481 8.28646 89.0481 8.19271C89.0481 8.08854 89.0742 7.99479 89.1263 7.91146V7.81771C89.1263 7.77604 89.121 7.73438 89.1106 7.69271C89.1106 7.65104 89.095 7.60938 89.0638 7.56771C89.1367 7.16146 89.194 6.76042 89.2356 6.36458C89.2773 5.95833 89.2981 5.54167 89.2981 5.11458C89.2981 5.08333 89.3138 5 89.345 4.86458C89.3867 4.71875 89.4127 4.61979 89.4231 4.56771C89.4648 4.32812 89.4908 4.09375 89.5013 3.86458C89.5221 3.625 89.5481 3.38542 89.5794 3.14583C89.5898 3.0625 89.0625 3.05729 89.0938 2.92188C89.125 2.78646 89.1406 2.69271 89.1406 2.64062C89.1406 2.56771 89.125 2.52083 89.0938 2.5C89.0729 2.46875 89.0521 2.42188 89.0312 2.35938C89.0938 2.11979 89.6731 1.77604 89.6731 1.53646C89.6835 1.28646 89.7044 1.04167 89.7356 0.802083C89.9127 0.729167 90.0533 0.65625 90.1575 0.583333C90.2617 0.510417 90.4127 0.473958 90.6106 0.473958H90.6419C90.6627 0.598958 90.7096 0.71875 90.7825 0.833333C90.8554 0.9375 90.9283 1.04688 91.0013 1.16146C91.0846 1.26562 91.1575 1.36979 91.22 1.47396C91.2825 1.56771 91.3138 1.66146 91.3138 1.75521C91.3138 1.93229 91.2981 2.125 91.2669 2.33333C91.2356 2.54167 91.2096 2.73438 91.1888 2.91146C91.1367 3.38021 91.0898 3.84375 91.0481 4.30208C91.0065 4.75 90.944 5.20833 90.8606 5.67708C90.8919 5.82292 90.9075 5.95833 90.9075 6.08333C90.9075 6.27083 90.8919 6.45833 90.8606 6.64583C90.8294 6.83333 90.8138 7.02604 90.8138 7.22396C90.8138 7.31771 90.819 7.41667 90.8294 7.52083C90.8502 7.625 90.8815 7.71875 90.9231 7.80208C91.2773 7.70833 91.595 7.51562 91.8763 7.22396C91.9179 7.18229 91.9596 7.13021 92.0013 7.06771C92.0533 6.99479 92.1054 6.9375 92.1575 6.89583C92.2617 6.8125 92.371 6.73958 92.4856 6.67708C92.6106 6.60417 92.7304 6.53125 92.845 6.45833C93.1158 6.28125 93.3763 6.09896 93.6263 5.91146C93.8867 5.71354 94.1471 5.52083 94.4075 5.33333C95.1783 4.77083 95.9231 4.1875 96.6419 3.58333C97.371 2.96875 98.0794 2.32292 98.7669 1.64583C98.7981 1.46875 98.8606 1.32812 98.9544 1.22396C99.0481 1.11979 99.1315 0.994792 99.2044 0.848958C99.4023 0.776042 99.5742 0.666667 99.72 0.520833C99.7825 0.541667 99.845 0.557292 99.9075 0.567708C99.9804 0.567708 100.048 0.567708 100.111 0.567708C100.184 0.567708 100.251 0.572917 100.314 0.583333C100.387 0.583333 100.449 0.598958 100.501 0.630208C100.512 0.786458 100.527 0.927083 100.548 1.05208C100.569 1.17708 100.631 1.29688 100.736 1.41146C100.736 1.43229 100.736 1.45312 100.736 1.47396C100.746 1.49479 100.751 1.51562 100.751 1.53646C100.751 1.65104 100.72 1.74479 100.658 1.81771C100.595 1.89062 100.559 1.97917 100.548 2.08333L99.7356 2.89583C99.4648 3.16667 99.2148 3.45833 98.9856 3.77083C98.9023 3.78125 98.8294 3.80729 98.7669 3.84896C98.7044 3.89062 98.6419 3.9375 98.5794 3.98958C98.5273 4.03125 98.47 4.07292 98.4075 4.11458C98.345 4.15625 98.2773 4.1875 98.2044 4.20833C98.0169 4.45833 97.8033 4.6875 97.5638 4.89583C97.3242 5.09375 97.0794 5.28646 96.8294 5.47396C96.5794 5.66146 96.3294 5.85417 96.0794 6.05208C95.8398 6.23958 95.6158 6.44792 95.4075 6.67708C95.1888 6.78125 94.9752 6.90625 94.7669 7.05208C94.569 7.1875 94.4075 7.35938 94.2825 7.56771H94.2044C94.1523 7.56771 94.1106 7.58333 94.0794 7.61458C94.0481 7.63542 94.0065 7.64583 93.9544 7.64583C93.3919 8.13542 92.8085 8.59896 92.2044 9.03646C91.6002 9.46354 91.0221 9.93229 90.47 10.4427V10.8333C90.6471 10.9375 90.8398 11.0365 91.0481 11.1302C91.2565 11.2135 91.4596 11.3073 91.6575 11.4115C91.8658 11.5156 92.0585 11.6302 92.2356 11.7552C92.4231 11.8698 92.5846 12.0104 92.72 12.1771C92.7408 12.1667 92.7669 12.1615 92.7981 12.1615C92.8919 12.1615 92.9648 12.1927 93.0169 12.2552C93.069 12.3073 93.1575 12.3229 93.2825 12.3021C93.3242 12.4688 93.4179 12.5885 93.5638 12.6615C93.7096 12.7344 93.8554 12.7969 94.0013 12.849C94.1263 12.974 94.2408 13.0938 94.345 13.2083C94.4492 13.3125 94.6002 13.3802 94.7981 13.4115C94.819 13.4531 94.8346 13.5 94.845 13.5521C94.8554 13.6042 94.8763 13.651 94.9075 13.6927C95.1054 13.7552 95.2929 13.8438 95.47 13.9583C95.6575 14.0729 95.8398 14.1927 96.0169 14.3177C96.194 14.4323 96.371 14.5469 96.5481 14.6615C96.7356 14.7656 96.9335 14.849 97.1419 14.9115C97.1731 15.0156 97.2304 15.0885 97.3138 15.1302C97.4075 15.1719 97.4804 15.2344 97.5325 15.3177H97.8138C97.845 15.3698 97.8867 15.4219 97.9388 15.474C97.9908 15.5156 98.0273 15.5781 98.0481 15.6615C98.1315 15.6823 98.2252 15.7135 98.3294 15.7552C98.4335 15.7865 98.5273 15.8281 98.6106 15.8802C98.6419 15.9115 98.6627 15.9479 98.6731 15.9896C98.694 16.0312 98.7252 16.0677 98.7669 16.099C98.8294 16.151 98.9231 16.1927 99.0481 16.224C99.1835 16.2448 99.2981 16.2812 99.3919 16.3333C99.5794 16.4375 99.7617 16.5521 99.9388 16.6771C100.116 16.8125 100.303 16.9375 100.501 17.0521L101.111 17.3802C101.215 17.4323 101.309 17.4896 101.392 17.5521C101.486 17.6146 101.579 17.6719 101.673 17.724C101.861 17.8073 102.059 17.8594 102.267 17.8802C102.486 17.9115 102.684 17.9688 102.861 18.0521C102.913 18.0833 102.949 18.1198 102.97 18.1615C102.991 18.2135 103.027 18.2552 103.079 18.2865C103.163 18.3385 103.293 18.375 103.47 18.3958C103.647 18.4167 103.793 18.4531 103.908 18.5052C104.053 18.5677 104.194 18.625 104.329 18.6771C104.475 18.7396 104.621 18.8125 104.767 18.8958C105.079 18.9167 105.387 18.9531 105.689 19.0052C106.001 19.0573 106.309 19.1094 106.611 19.1615C106.913 19.2135 107.215 19.2604 107.517 19.3021C107.829 19.3438 108.142 19.3594 108.454 19.349C108.454 19.3698 108.465 19.3802 108.486 19.3802C108.517 19.3906 108.543 19.3958 108.564 19.3958C108.637 19.5104 108.699 19.625 108.751 19.7396C108.803 19.8542 108.829 19.974 108.829 20.099Z" fill="white"/>
</svg>
